<svg width="305" height="305" viewBox="0 0 305 305" fill="none" xmlns="http://www.w3.org/2000/svg">
<path d="M283 152C283 223.797 224.797 282 153 282C81.203 282 23 223.797 23 152C23 80.203 81.203 22 153 22C224.797 22 283 80.203 283 152Z" fill="#FAE189"/>
<path d="M119.339 96.2857L119.339 206.554M185.5 96.2857V206.554M283 152C283 223.797 224.797 282 153 282C81.203 282 23 223.797 23 152C23 80.203 81.203 22 153 22C224.797 22 283 80.203 283 152Z" stroke="#E4BF39" stroke-width="18" stroke-linecap="round" stroke-linejoin="round"/>
</svg>
