<svg width="305" height="305" viewBox="0 0 305 305" fill="none" xmlns="http://www.w3.org/2000/svg">
<path d="M283 152C283 223.797 224.797 282 153 282C81.203 282 23 223.797 23 152C23 80.203 81.203 22 153 22C224.797 22 283 80.203 283 152Z" fill="#B4E0F9"/>
<path d="M153.58 59.1429V152M209.875 177.536L154.161 153.161M75.2321 152H63.625M153 241.374L153.186 229.768M242.375 152H230.768M283 152C283 223.797 224.797 282 153 282C81.203 282 23 223.797 23 152C23 80.203 81.203 22 153 22C224.797 22 283 80.203 283 152Z" stroke="#0075FF" stroke-width="15" stroke-linecap="round"/>
</svg>
